# xmcd
#
# Track frame offsets:
#	150
#	20175
#	43125
#	75375
#	92850
#	114000
#	132749
#
# Disc length: 2272 seconds
#
# Revision: 2
# Processed by: cddbd v1.5.1PL2 Copyright (c) Steve Scherf et al.
# Submitted via: EasyCDDAExtractor 8.0.2.1
#
DISCID=5708de07
DTITLE=Uriah Heep - Paradiso Amsterdam 12-05-85 Disc 2
DYEAR=1985
DGENRE=Hard Rock
TTITLE0=Party Time
TTITLE1=Guitar Solo
TTITLE2=Gypsy
TTITLE3=Easy Livin'
TTITLE4=That's The Way That It Is
TTITLE5=Drum Solo - Jam
TTITLE6=Look At Yourself Outro
EXTD=
EXTT0=
EXTT1=
EXTT2=
EXTT3=
EXTT4=
EXTT5=
EXTT6=
PLAYORDER=
